<svg xmlns="http://www.w3.org/2000/svg" width="178" height="178" viewBox="0 0 178 178"><defs><style>.a{fill:#f2f2f7;opacity:0.298;}.b{fill:#cccdcf;opacity:0.4;}.c{fill:#fff;}.d{fill:#eaf4f7;}.e{fill:#363a5a;}.f{fill:#3dc0cb;opacity:0.22;}.g,.j{fill:rgba(170,216,255,0.72);}.h{fill:#27c1cf;}.i{fill:#305d84;}.j{stroke:#27c1cf;}.j,.k{stroke-linecap:round;stroke-linejoin:round;stroke-width:4px;}.k{fill:#fddcbf;stroke:#ecb072;}.l{fill:#ee7637;}.m{fill:#cd3c27;}.n{fill:#f0ad73;}</style></defs><g transform="translate(-66.207 -431.207)"><circle class="a" cx="89" cy="89" r="89" transform="translate(66.207 431.207)"/><g transform="translate(100.418 479.988)"><path class="b" d="M269.625,345.067l-23.2,14.632a9.6,9.6,0,0,1-8.057,1.019l-25.434-8.176a9.6,9.6,0,0,0-8.1,1.047L186.21,365.477a4.349,4.349,0,0,1-6.5-2.483l-16.071-56.341a4.349,4.349,0,0,1,1.859-4.869l23.451-14.821a10.51,10.51,0,0,1,8.83-1.122l24.623,7.915a10.509,10.509,0,0,0,8.858-1.139L248.887,281.4a4.349,4.349,0,0,1,6.517,2.476l16.069,56.333A4.349,4.349,0,0,1,269.625,345.067Z" transform="translate(-163.467 -272.079)"/><path class="c" d="M275,309.583l-19.814,12.609a10.509,10.509,0,0,1-8.858,1.139L221.7,315.415a10.51,10.51,0,0,0-8.83,1.121l-21.29,13.456a4.349,4.349,0,0,1-6.5-2.483l-16.071-56.341a4.349,4.349,0,0,1,1.859-4.869l23.449-14.821a10.51,10.51,0,0,1,8.83-1.121l24.624,7.915a10.509,10.509,0,0,0,8.858-1.139l17.633-11.221a4.349,4.349,0,0,1,6.517,2.476l16.069,56.333A4.349,4.349,0,0,1,275,309.583Z" transform="translate(-167.934 -242.574)"/><path class="d" d="M267.593,524.213l-3.684-10.395L246.5,519.779,241.054,504l-14.181,2.822,9.942,34.855a.73.73,0,0,0,.705.529.694.694,0,0,0,.379-.115L258.141,529.3C258.053,529.2,267.593,524.213,267.593,524.213Z" transform="translate(-216.188 -457.741)"/><path class="e" d="M186.787,328.682a4.875,4.875,0,0,1-1.74-.324,4.812,4.812,0,0,1-2.937-3.2L166.04,268.814a4.881,4.881,0,0,1,2.075-5.435l23.451-14.821a10.987,10.987,0,0,1,9.255-1.175l24.624,7.915a9.976,9.976,0,0,0,8.432-1.084l17.633-11.221a4.854,4.854,0,0,1,7.274,2.764l16.069,56.333a4.884,4.884,0,0,1-2.062,5.426l-19.814,12.609a10.984,10.984,0,0,1-9.284,1.194L219.068,313.4a9.978,9.978,0,0,0-8.406,1.067l-21.29,13.456A4.827,4.827,0,0,1,186.787,328.682Zm10.657-80.819a9.981,9.981,0,0,0-5.339,1.549l-23.452,14.821a3.865,3.865,0,0,0-1.643,4.3l16.071,56.341a3.843,3.843,0,0,0,5.749,2.195l21.291-13.456a10.987,10.987,0,0,1,9.255-1.175L244,320.356a9.975,9.975,0,0,0,8.432-1.084l19.814-12.609.271.427-.271-.427a3.866,3.866,0,0,0,1.633-4.3l-16.069-56.332a3.843,3.843,0,0,0-5.759-2.189l-17.633,11.222a10.984,10.984,0,0,1-9.284,1.194l-24.624-7.915A10.021,10.021,0,0,0,197.444,247.863Z" transform="translate(-165.455 -240.081)"/><path class="e" d="M358.4,583.127a.337.337,0,0,1-.084-.663s.3-.079.8-.225a.337.337,0,0,1,.189.647c-.508.148-.808.227-.82.23A.349.349,0,0,1,358.4,583.127Z" transform="translate(-325.274 -522.779)"/><path class="e" d="M641.142,374.878a.337.337,0,0,1-.324-.246c-.139-.5-.232-.8-.233-.8a.337.337,0,1,1,.639-.214l0,.013c0,.012.1.311.239.818a.337.337,0,0,1-.325.428Z" transform="translate(-560.169 -349.135)"/><circle class="f" cx="10.483" cy="10.483" r="10.483" transform="translate(23.921 47.603)"/><circle class="g" cx="6.079" cy="6.079" r="6.079" transform="translate(28.325 52.007)"/><path class="h" d="M336.274,560.232a6.07,6.07,0,0,0-4.82,2.376,6.078,6.078,0,0,1,8.236,8.732,6.079,6.079,0,0,0-3.415-11.108Z" transform="translate(-301.869 -508.225)"/><path class="i" d="M329.4,570.695a6.732,6.732,0,1,1,6.732-6.732A6.732,6.732,0,0,1,329.4,570.695Zm0-12.158a5.427,5.427,0,1,0,5.427,5.427A5.427,5.427,0,0,0,329.4,558.536Z" transform="translate(-294.993 -505.876)"/><path class="j" d="M220,303.892l13.507,2.56-3.1-5.452-11.179-3.9a5.214,5.214,0,0,0-3.985.228l-24.564,14.921a.729.729,0,0,0-.31.812l3.961,13.888,10.8-2.67-1.983-7.956Z" transform="translate(-185.813 -285.461)"/><path class="k" d="M493.37,542.929l9.472,2.385,4.579,10.5-10.2-1.673Z" transform="translate(-437.684 -492.28)"/><path class="d" d="M587.485,351.083c-6.261,0-11.337-1.816-11.337-4.056s5.076-4.056,11.337-4.056,11.337,1.816,11.337,4.056S593.747,351.083,587.485,351.083Z" transform="translate(-520.463 -309.595)"/><path class="k" d="M628.177,497.109l14.143-6.157,5.587,17.021-22.9,13.015-4.2-11.847,8.955-5.037Z" transform="translate(-543.739 -446.887)"/><path class="l" d="M577.8,165.074a16.691,16.691,0,1,0-33.375-.593c0,12.759,16.683,22.6,16.683,22.6S577.8,177.241,577.8,165.074Z" transform="translate(-494.088 -147.419)"/><path class="m" d="M567.2,206.936a7.447,7.447,0,0,1-9.2-.032c-4.937-3.91-12.079-11.008-12.079-19.356a16.228,16.228,0,0,1,3.338-9.8,16.4,16.4,0,0,0-4.835,11.529c0,12.759,16.683,22.6,16.683,22.6A49.57,49.57,0,0,0,572.834,201.8,47.68,47.68,0,0,1,567.2,206.936Z" transform="translate(-494.087 -172.213)"/><path class="n" d="M597.229,147.946a16.512,16.512,0,0,0-8.409,2.818,16.3,16.3,0,0,1,6.274-1.6,16.9,16.9,0,0,1,17.485,17.128c0,9.54-10.261,17.648-14.693,20.7l.135.082s16.692-9.839,16.692-22.005A16.9,16.9,0,0,0,597.229,147.946Z" transform="translate(-530.999 -147.419)"/><path class="c" d="M609.537,220.829a6.868,6.868,0,1,1,6.868-6.868h0A6.868,6.868,0,0,1,609.537,220.829Z" transform="translate(-542.514 -196.615)"/><path class="e" d="M607.043,218.84a7.374,7.374,0,1,1,7.373-7.374h0A7.382,7.382,0,0,1,607.043,218.84Zm0-13.736a6.362,6.362,0,1,0,6.362,6.363h0a6.37,6.37,0,0,0-6.362-6.362Z" transform="translate(-540.02 -194.12)"/><path class="e" d="M558.616,185.08a.505.505,0,0,1-.257-.07,50.631,50.631,0,0,1-8.437-6.587c-5.557-5.4-8.495-11.089-8.495-16.447A17.31,17.31,0,0,1,557.8,144.935a16.827,16.827,0,0,1,12.52,4.7,17.933,17.933,0,0,1,5.5,12.936c0,5.116-2.94,10.625-8.5,15.931a52.488,52.488,0,0,1-8.438,6.51A.507.507,0,0,1,558.616,185.08Zm0-39.153q-.385,0-.773.018a16.173,16.173,0,0,0-10.823,4.96,15.838,15.838,0,0,0-4.585,11.07c0,3.537,1.418,9.134,8.173,15.706a50.4,50.4,0,0,0,8,6.3c2.091-1.3,16.187-10.493,16.187-21.413a16.918,16.918,0,0,0-5.182-12.2,15.834,15.834,0,0,0-11-4.438Z" transform="translate(-491.593 -144.914)"/></g></g></svg>